<?xml version="1.0" standalone="no"?>
<!DOCTYPE svg PUBLIC "-//W3C//DTD SVG 20010904//EN"
 "http://www.w3.org/TR/2001/REC-SVG-20010904/DTD/svg10.dtd">
<svg version="1.0" xmlns="http://www.w3.org/2000/svg"
 width="32.000000pt" height="32.000000pt" viewBox="0 0 32.000000 32.000000"
 preserveAspectRatio="xMidYMid meet">
<metadata>
Created by potrace 1.16, written by Peter Selinger 2001-2019
</metadata>
<g transform="translate(0.000000,32.000000) scale(0.100000,-0.100000)"
fill="#000000" stroke="none">
<path d="M76 289 c-12 -37 -19 -78 -19 -113 -1 -33 5 -44 33 -68 40 -33 23
-38 -20 -6 -23 17 -33 19 -42 10 -16 -16 14 -48 58 -64 19 -7 34 -16 34 -20 0
-4 7 -8 15 -8 8 0 15 8 15 19 0 10 3 32 6 48 5 26 2 31 -25 43 -36 15 -49 49
-32 86 6 14 8 30 5 36 -4 6 0 7 12 1 22 -10 104 -10 120 0 16 9 28 -76 15
-101 -6 -11 -22 -23 -37 -26 -21 -6 -25 -11 -20 -29 3 -12 6 -34 6 -49 0 -18
5 -28 15 -28 10 0 15 10 15 33 0 25 7 39 29 55 38 27 45 64 28 132 -13 49 -17
55 -38 52 -46 -6 -124 -5 -146 3 -16 5 -24 3 -27 -6z"/>
</g>
</svg>
