<?xml version="1.0" standalone="no"?>
<!DOCTYPE svg PUBLIC "-//W3C//DTD SVG 20010904//EN"
 "http://www.w3.org/TR/2001/REC-SVG-20010904/DTD/svg10.dtd">
<svg version="1.0" xmlns="http://www.w3.org/2000/svg"
 width="32.000000pt" height="32.000000pt" viewBox="0 0 32.000000 32.000000"
 preserveAspectRatio="xMidYMid meet">

<g transform="translate(0.000000,32.000000) scale(0.100000,-0.100000)"
fill="#000000" stroke="none">
<path d="M8 294 c-14 -31 -1 -57 31 -62 28 -4 51 14 51 42 0 50 -62 65 -82 20z
m60 -17 c4 -20 -25 -34 -40 -19 -15 15 -1 44 19 40 10 -2 19 -11 21 -21z"/>
<path d="M214 220 c-10 -4 -38 -5 -61 -2 l-43 5 0 -112 0 -111 40 0 39 0 3 73
c3 64 5 72 23 72 18 0 20 -8 23 -73 l3 -72 39 0 40 0 0 84 c0 68 -4 88 -20
108 -21 28 -55 38 -86 28z m77 -47 c5 -13 9 -53 9 -89 0 -57 -2 -64 -20 -64
-18 0 -20 7 -20 56 0 66 -13 94 -43 94 -37 0 -47 -19 -47 -87 0 -56 -2 -63
-20 -63 -19 0 -20 7 -20 90 0 83 1 90 20 90 12 0 20 -7 20 -17 0 -14 2 -15 18
-1 37 33 88 29 103 -9z"/>
<path d="M8 214 c-3 -3 -4 -51 -2 -107 l4 -102 37 0 38 0 3 108 3 107 -39 0
c-21 0 -41 -2 -44 -6z m62 -104 c0 -89 0 -90 -25 -90 -25 0 -25 1 -25 90 0 89
0 90 25 90 25 0 25 -1 25 -90z"/>
</g>
</svg>
