<?xml version="1.0" standalone="no"?>
<!DOCTYPE svg PUBLIC "-//W3C//DTD SVG 20010904//EN"
 "http://www.w3.org/TR/2001/REC-SVG-20010904/DTD/svg10.dtd">
<svg version="1.0" xmlns="http://www.w3.org/2000/svg"
 width="32.000000pt" height="32.000000pt" viewBox="0 0 32.000000 32.000000"
 preserveAspectRatio="xMidYMid meet">

<g transform="translate(0.000000,32.000000) scale(0.100000,-0.100000)"
fill="#000000" stroke="none">
<path d="M150 251 c-156 -50 -171 -63 -111 -93 38 -19 51 -34 51 -60 0 -9 5
-29 10 -43 l10 -26 30 21 c31 22 40 21 78 -13 19 -18 24 -19 36 -6 15 17 69
246 61 259 -8 13 1 15 -165 -39z m123 -94 l-28 -116 -45 35 c-25 20 -47 38
-49 40 -3 3 19 29 48 58 29 30 49 56 44 59 -4 3 -39 -13 -78 -35 -66 -38 -72
-39 -108 -28 -22 6 -37 14 -34 17 7 6 271 92 275 89 1 -2 -10 -55 -25 -119z
m-126 -15 c-15 -16 -27 -35 -28 -43 0 -8 -4 -6 -9 6 -13 30 -12 31 22 53 42
27 49 19 15 -16z m-5 -64 c-7 -7 -12 -8 -12 -2 0 14 12 26 19 19 2 -3 -1 -11
-7 -17z"/>
</g>
</svg>
